<?xml version="1.0"?>
<svg width="60" height="60" xmlns="http://www.w3.org/2000/svg" version="1.1">
 <title>jasmine-white-horizontal copy</title>
 <desc>Created with Sketch.</desc>
 <g class="layer">
  <title>Layer 1</title>
  <g id="logo">
   <g id="svg_1">
    <polyline fill="#075fe4" id="path36" points="28.21685028076172,25.715927124023438 32.615447998046875,25.715927124023438 33.708091735839844,24.21167755126953 33.708091735839844,12.427703857421875 27.124542236328125,12.427703857421875 27.124542236328125,24.212600708007812 28.21685028076172,25.715927124023438 "/>
    <polyline fill="#075fe4" id="path38" points="25.381389617919922,30.972190856933594 26.74042510986328,26.789085388183594 25.647390365600586,25.284595489501953 14.440153121948242,21.6431884765625 12.405601501464844,27.90460968017578 23.614486694335938,31.54645538330078 25.381389617919922,30.972190856933594 "/>
    <polyline fill="#075fe4" id="path40" points="29.50390625,35.29338073730469 25.945768356323242,32.707054138183594 24.177217483520508,33.28262710571289 17.250795364379883,42.81616973876953 22.576757431030273,46.68538284301758 29.50390625,37.151309967041016 29.50390625,35.29338073730469 "/>
    <polyline fill="#075fe4" id="path42" points="34.887447357177734,32.707054138183594 31.328536987304688,35.29241180419922 31.329071044921875,37.151649475097656 38.25529479980469,46.68538284301758 43.581886291503906,42.81616973876953 36.65430450439453,33.281707763671875 34.887447357177734,32.707054138183594 "/>
    <polyline fill="#075fe4" id="path44" points="34.090904235839844,26.787921905517578 35.45071029663086,30.9718017578125 37.21907043457031,31.545486450195312 48.4264030456543,27.90460968017578 46.39214324951172,21.6431884765625 35.18413162231445,25.285179138183594 34.090904235839844,26.787921905517578 "/>
    <path d="m30.42,2.2c-15.66,0 -28.4,12.74 -28.4,28.39c0,15.66 12.74,28.4 28.4,28.4c15.65,0 28.39,-12.74 28.39,-28.4c0,-15.65 -12.74,-28.39 -28.39,-28.39zm0,5.75c12.5,0 22.64,10.14 22.64,22.64c0,12.51 -10.14,22.65 -22.64,22.65c-12.51,0 -22.65,-10.14 -22.65,-22.65c0,-12.5 10.14,-22.64 22.65,-22.64z" fill="#075fe4" id="path46"/>
    <polyline fill="#075fe4" id="path48" points="47.61599349975586,36.903629302978516 39.09648132324219,34.135009765625 39.660133361816406,32.399417877197266 48.1792106628418,35.16803741455078 47.61599349975586,36.903629302978516 "/>
    <polyline fill="#075fe4" id="path50" points="36.750465393066406,23.22600555419922 35.274234771728516,22.153621673583984 40.53902816772461,14.90594482421875 42.015647888183594,15.97808837890625 36.750465393066406,23.22600555419922 "/>
    <polyline fill="#075fe4" id="path52" points="24.17304801940918,23.15955352783203 18.908788681030273,15.912166595458984 20.385408401489258,14.839542388916016 25.649667739868164,22.087364196777344 24.17304801940918,23.15955352783203 "/>
    <polyline fill="#075fe4" id="path54" points="13.181306838989258,36.79476547241211 12.617801666259766,35.05951690673828 21.13668441772461,32.292396545410156 21.699947357177734,34.027652740478516 13.181306838989258,36.79476547241211 "/>
    <polygon fill="#075fe4" id="path56" points="29.447681427001953,48.695892333984375 31.272098541259766,48.695892333984375 31.272098541259766,39.73797607421875 29.447681427001953,39.73797607421875 29.447681427001953,48.695892333984375 "/>
   </g>
  </g>
 </g>
</svg>