<?xml version="1.0" standalone="no"?>
<!DOCTYPE svg PUBLIC "-//W3C//DTD SVG 20010904//EN"
 "http://www.w3.org/TR/2001/REC-SVG-20010904/DTD/svg10.dtd">
<svg version="1.0" xmlns="http://www.w3.org/2000/svg"
 width="100.000000pt" height="100.000000pt" viewBox="0 0 100.000000 100.000000"
 preserveAspectRatio="xMidYMid meet">

<g transform="translate(0.000000,100.000000) scale(0.100000,-0.100000)"
fill="#075fe4" stroke="none">
<path d="M412 948 c-52 -33 -85 -61 -88 -75 -4 -13 -8 -23 -9 -23 -2 0 -70 21
-151 46 -109 34 -150 42 -158 34 -18 -19 10 -32 187 -85 119 -36 167 -54 167
-65 0 -11 -48 -29 -167 -65 -177 -53 -205 -66 -187 -85 8 -8 49 0 158 34 81
25 149 46 152 46 2 0 4 -8 4 -17 0 -9 9 -27 21 -39 l21 -22 -71 -307 c-39
-168 -69 -310 -66 -316 8 -12 542 -12 550 1 3 5 -26 147 -66 315 l-71 307 21
22 c12 12 21 30 21 39 0 9 2 17 4 17 3 0 71 -21 152 -46 104 -32 150 -42 157
-35 7 7 8 14 1 21 -11 11 -319 110 -341 110 -7 0 -13 9 -13 20 0 11 6 20 13
20 22 0 330 99 341 110 7 7 6 14 -1 21 -7 7 -53 -3 -157 -35 -81 -25 -149 -46
-151 -46 -1 0 -5 10 -9 23 -5 19 -121 105 -166 122 -10 3 -50 -16 -98 -47z
m163 -39 c99 -62 91 -69 -75 -69 -114 0 -140 3 -140 14 0 15 115 94 138 95 7
1 42 -17 77 -40z m25 -129 c0 -19 -7 -20 -100 -20 -93 0 -100 1 -100 20 0 19
7 20 100 20 93 0 100 -1 100 -20z m40 -80 c0 -19 -7 -20 -140 -20 -133 0 -140
1 -140 20 0 19 7 20 140 20 133 0 140 -1 140 -20z m-164 -101 c-43 -22 -80
-38 -83 -36 -2 3 -1 21 2 41 l7 36 77 0 76 -1 -79 -40z m127 4 c3 -5 8 -23 12
-40 l7 -33 -134 -65 c-73 -37 -134 -62 -135 -58 -2 5 3 28 10 53 12 44 14 46
117 97 113 55 117 57 123 46z m39 -168 c3 -33 0 -35 -233 -147 l-96 -46 11 52
11 51 145 71 c152 75 156 75 162 19z m22 -95 c3 -11 9 -29 12 -40 5 -18 -18
-32 -192 -115 -108 -52 -198 -95 -200 -95 -7 0 -4 24 7 63 10 38 14 41 182
122 95 46 175 84 179 84 4 1 9 -8 12 -19z m39 -183 c-3 -4 -54 -32 -114 -62
l-109 -55 -97 0 -98 1 200 98 200 98 11 -36 c6 -20 9 -40 7 -44z m21 -69 c12
-47 10 -48 -71 -48 l-78 1 65 34 c36 19 68 34 71 35 4 0 9 -10 13 -22z"/>
</g>
</svg>
