<svg width="120" height="260" xmlns="http://www.w3.org/2000/svg" fill="none">

 <g>
  <title>Layer 1</title>
  <path id="svg_1" fill="#075fe4" d="m82.3229,28.6444c-10.7862,-12.7975 -20.0744,-25.79495 -21.9719,-28.49443c-0.1998,-0.19996 -0.4995,-0.19996 -0.6992,0c-1.8976,2.69948 -11.1857,15.69693 -21.972,28.49443c-92.5817,118.0766 14.5815,197.7616 14.5815,197.7616l0.8988,0.6c0.7989,12.297 2.7964,29.994 2.7964,29.994l3.9949,0l3.9949,0c0,0 1.9975,-17.597 2.7965,-29.994l0.8988,-0.7c0.0998,0.1 107.2634,-79.585 14.6813,-197.6616zm-22.3715,195.9616c0,0 -4.7938,-4.099 -6.0922,-6.198l0,-0.201l5.7926,-128.5744c0,-0.4 0.5993,-0.4 0.5993,0l5.7925,128.5744l0,0.201c-1.2983,2.099 -6.0922,6.198 -6.0922,6.198z"/>
 </g>
</svg>