<svg version="1.0" xmlns="http://www.w3.org/2000/svg" width="682.667" height="682.667" viewBox="0 0 512 512"><style>path{transition:fill .3s ease}path:hover{fill:#075fe4}</style><g fill="#8F8F8F"><path d="M73.3 1.8C64.1 5.1 57.5 11.5 53.9 21 52 25.9 52 31.4 52 256c0 228.7 0 230 2 235.4 2.7 7.2 8.8 13.9 15.8 17.3l5.7 2.8 35.5.3c19.5.2 36.5 0 37.8-.3 1.4-.3 2.9-1.9 3.8-4 1.3-3.1 1.3-3.9 0-6.4-.9-1.6-2.3-3.1-3.1-3.5-.9-.3-16.9-.6-35.6-.6-31.9 0-34.2-.1-37.9-2-2.1-1.1-4.9-3.4-6.2-5.2l-2.3-3.3v-461l2.3-3.3c1.3-1.8 4.1-4.1 6.2-5.2 3.9-2 6.6-2 180-2s176.1 0 180 2c2.1 1.1 4.9 3.4 6.2 5.2l2.3 3.3.3 183.7.2 183.8h-44.5c-39.1 0-45 .2-47.8 1.6-4.5 2.3-6.6 4.4-8.8 8.6-1.8 3.5-1.9 6.5-1.9 48.8v45h-81.3c-80.5 0-81.3 0-83.5 2-3 2.8-3 8.2 0 11 2.2 2 2.6 2 90.3 1.8l88-.3 5-2.4c5.4-2.7 34.5-30.3 37.1-35.3 1.8-3.4.9-7.3-1.9-9.3-4.7-3.3-6.5-2.2-22.2 13.5-8.2 8.3-15.3 15-15.7 15-.5 0-.7-19-.6-42.2l.3-42.3 42.5-.3 42.5-.2-15.6 15.7c-8.6 8.7-16.2 16.8-16.8 18-2.5 4.9 1.4 10.3 7.4 10.3 2.6 0 5.4-2.4 20-17.2 11.7-11.8 17.9-18.9 19.5-22.3l2.5-5 .3-190.7c.2-189.9.2-190.7-1.8-196.1-2.7-7.3-8.8-13.9-15.8-17.4L436.5.5l-179-.2C87.7.1 78.2.1 73.3 1.8z"/><path d="M95.3 38.5c-2.7 1.6-4.9 4-6.2 6.8-2.1 4.3-2.1 5.3-2.1 81.2 0 76 0 76.9 2.1 81.2 1.4 2.9 3.5 5.2 6.3 6.8l4.3 2.5h69.8c68.5 0 69.8 0 73.4-2.1 2-1.1 4.8-3.6 6.1-5.6l2.5-3.7.3-37.3.3-37.3-2.5-2.5c-3-3-6.5-3.2-9.7-.6l-2.4 1.9-.5 35.9-.5 35.8-6.2.3-6.2.3-.5-3.3c-.3-1.8-1-6.7-1.6-10.8s-2-9.4-3.1-11.7c-2.7-5.5-9.5-11.5-15.9-13.9l-5-1.9 2.6-3.5c4.2-5.6 8.2-14.9 9.9-23 .9-4.1 2.4-8.9 3.3-10.5 1.4-2.4 1.7-5.6 1.7-16.5-.1-16.3-2-22.6-9.2-29.7-6.1-6.2-11.7-8.4-23.7-9.4-5.6-.5-12.7-1.3-16-1.8-15.5-2.5-34.1 6.7-40.3 20.1-5.2 11-5.5 28.4-.8 38.4 1.4 2.9 2.5 6.2 2.5 7.2 0 5.6 5.7 18.7 11.5 26.8 1.5 2.1 1.4 2.2-3.6 4-6.5 2.4-13.1 8.1-15.8 13.7-1.2 2.4-2.6 8.1-3.1 12.8-1.8 14.1-1.1 13-8.3 12.7l-6.2-.3v-150h134l.5 25.3c.5 25.2.5 25.4 2.9 27.3 3.2 2.6 6.7 2.4 9.6-.6l2.5-2.4V75.4c0-24.1-.1-26-2.1-30.1-1.4-2.9-3.5-5.2-6.3-6.8l-4.3-2.5H99.5l-4.2 2.5zM171 82.1c1.9.5 6.7.9 10.5.9 13.8 0 19.5 6.9 19.5 23.4 0 4.7-.4 6.6-1.3 6.6-2.9 0-9.4-4.3-13.4-9-6.4-7.2-12.6-7.8-17.4-1.6-3.9 5-18.8 10.5-28.1 10.6H137v-5.8c0-11.4 4.4-19.6 13-24.2 5-2.7 12.8-3 21-.9zm13.5 40.6c1.7 1.1 4.8 2.6 7 3.3s4.3 1.4 4.7 1.6c.9.6-1.6 9.2-4.2 14.4-3.7 7.3-7.7 11.7-13.2 14.4-8.9 4.5-17.6 2.8-25.3-4.9-4.1-4.1-9.3-14.2-10.2-19.8l-.5-3.5 4.8-.7c7.8-1.2 19.5-5.2 24.4-8.5l4.4-2.9 2.6 2.3c1.4 1.2 3.9 3.2 5.5 4.3zM162 173c5.1 1.4 12 1.2 17.4-.4 4.6-1.4 4.9-1.4 13.8 2.2 11.4 4.6 12.8 6.3 14.4 17.9.6 4.9 1.1 8.9.9 9.1-.1.1-17.7.1-39.1 0l-38.9-.3 1-8.7c.7-6 1.7-9.6 3.1-11.5 2.4-3.3 18.7-10.5 21.9-9.7 1.1.3 3.6.9 5.5 1.4zM303.2 37.8c-11.2 4-20.2 12.5-25.4 23.8-1.8 4-2.2 6.8-2.2 15.4-.1 9.7.1 11 3 17 3.9 8.3 8.3 13.3 15.7 18.1 15 9.7 34.8 8.4 46.6-3.2 5.1-4.9 5.6-9.6 1.5-12.8-3.8-3-6.8-2.6-11.1 1.3-5.7 5-8.2 6-15.3 6-24.2 0-35.1-29.9-16.7-46 7.9-7 18.8-8.4 28.5-3.9 7 3.3 10.5 3.2 13.1-.1 2.7-3.4 2.6-5.4-.1-8.9-5.7-7.3-25.8-10.9-37.6-6.7zm60.8.2c-1.1 1.1-2 3.2-1.9 4.7 0 1.6 5.5 18.5 12.2 37.8l12.2 35 3.8 2 3.7 2 3.8-2 3.7-2L413.2 81c6.4-19 11.7-35.9 11.7-37.6.1-3.7-3.4-7.4-7-7.4-5.3 0-6.4 1.9-14.9 27.7-4.6 13.7-8.5 25.1-8.9 25.5-.3.4-4.4-10.4-9.1-23.9s-9.3-25.7-10.3-27c-2.4-3-7.9-3.1-10.7-.3zm-86.4 115.1c-3.6 2.8-3.6 8 0 10.8 2.6 2 3.7 2.1 41.9 2.1 36.9 0 39.4-.1 41.6-1.9 3.2-2.6 3.2-8.6 0-11.2-2.2-1.8-4.7-1.9-41.6-1.9-38.2 0-39.3.1-41.9 2.1zm0 35c-3.6 2.8-3.6 8 0 10.8 2.6 2.1 3.5 2.1 60.4 2.1 55 0 57.9-.1 60.1-1.9 3.2-2.6 3.2-8.6 0-11.2-2.2-1.8-5.1-1.9-60.1-1.9-56.9 0-57.8 0-60.4 2.1zm-163.1 64.4c-1.4 1.3-2.5 3.6-2.5 5s1.1 3.7 2.5 5l2.4 2.5h80.2l2.4-2.5c1.4-1.3 2.5-3.6 2.5-5s-1.1-3.7-2.5-5l-2.4-2.5h-80.2l-2.4 2.5zm110 0c-1.4 1.3-2.5 3.6-2.5 5s1.1 3.7 2.5 5l2.4 2.5h168.2l2.4-2.5c1.4-1.3 2.5-3.6 2.5-5s-1.1-3.7-2.5-5l-2.4-2.5H226.9l-2.4 2.5zm-110 35c-1.4 1.3-2.5 3.6-2.5 5s1.1 3.7 2.5 5l2.4 2.5h81.9c81 0 81.8 0 84-2 3-2.8 3-8.2 0-11-2.2-2-3-2-84-2h-81.9l-2.4 2.5zm193.7-.5c-3 2.8-3 8.2 0 11 2.1 1.9 3.3 2 44.5 2h42.4l2.4-2.5c1.4-1.3 2.5-3.6 2.5-5s-1.1-3.7-2.5-5l-2.4-2.5h-42.4c-41.2 0-42.4.1-44.5 2zm-142 47c-1.4 1.4-2.2 3.3-2.2 5.5s.8 4.1 2.2 5.5c2.1 1.9 3.3 2 40.8 2s38.7-.1 40.8-2c1.4-1.4 2.2-3.3 2.2-5.5s-.8-4.1-2.2-5.5c-2.1-1.9-3.3-2-40.8-2s-38.7.1-40.8 2zm-51.7 35.5c-1.4 1.3-2.5 3.6-2.5 5s1.1 3.7 2.5 5c2.2 2.2 3.2 2.5 10.5 2.5s8.3-.3 10.5-2.5c1.4-1.3 2.5-3.6 2.5-5s-1.1-3.7-2.5-5c-2.2-2.2-3.2-2.5-10.5-2.5s-8.3.3-10.5 2.5zm45 0c-1.4 1.3-2.5 3.6-2.5 5s1.1 3.7 2.5 5l2.4 2.5h135.2l2.4-2.5c3.2-3.1 3.2-6.9 0-10l-2.4-2.5H161.9l-2.4 2.5zm-45 35c-1.4 1.3-2.5 3.6-2.5 5s1.1 3.7 2.5 5c2.2 2.2 3.2 2.5 10.5 2.5s8.3-.3 10.5-2.5c1.4-1.3 2.5-3.6 2.5-5s-1.1-3.7-2.5-5c-2.2-2.2-3.2-2.5-10.5-2.5s-8.3.3-10.5 2.5zm45 0c-1.4 1.3-2.5 3.6-2.5 5s1.1 3.7 2.5 5l2.4 2.5h135.2l2.4-2.5c3.2-3.1 3.2-6.9 0-10l-2.4-2.5H161.9l-2.4 2.5zm-45 35c-1.4 1.3-2.5 3.6-2.5 5s1.1 3.7 2.5 5c2.2 2.2 3.2 2.5 10.5 2.5s8.3-.3 10.5-2.5c1.4-1.3 2.5-3.6 2.5-5s-1.1-3.7-2.5-5c-2.2-2.2-3.2-2.5-10.5-2.5s-8.3.3-10.5 2.5zm45 0c-1.4 1.3-2.5 3.6-2.5 5s1.1 3.7 2.5 5l2.4 2.5h135.2l2.4-2.5c3.2-3.1 3.2-6.9 0-10l-2.4-2.5H161.9l-2.4 2.5z"/></g></svg>